<svg width="402" height="98" viewBox="0 0 402 98" fill="none" xmlns="http://www.w3.org/2000/svg">
<path d="M128.693 87C128.567 87 128.462 86.958 128.378 86.874C128.294 86.776 128.252 86.671 128.252 86.559C128.252 86.489 128.259 86.426 128.273 86.37L133.271 72.867C133.313 72.713 133.397 72.58 133.523 72.468C133.649 72.356 133.824 72.3 134.048 72.3H136.736C136.96 72.3 137.135 72.356 137.261 72.468C137.387 72.58 137.478 72.713 137.534 72.867L142.511 86.37C142.539 86.426 142.553 86.489 142.553 86.559C142.553 86.671 142.504 86.776 142.406 86.874C142.322 86.958 142.217 87 142.091 87H139.886C139.69 87 139.543 86.951 139.445 86.853C139.347 86.755 139.284 86.664 139.256 86.58L138.353 84.228H132.431L131.549 86.58C131.507 86.664 131.437 86.755 131.339 86.853C131.255 86.951 131.108 87 130.898 87H128.693ZM133.229 81.519H137.555L135.392 75.492L133.229 81.519ZM144.844 87C144.704 87 144.585 86.951 144.487 86.853C144.389 86.755 144.34 86.629 144.34 86.475V72.825C144.34 72.671 144.389 72.545 144.487 72.447C144.585 72.349 144.704 72.3 144.844 72.3H154.378C154.532 72.3 154.658 72.349 154.756 72.447C154.854 72.545 154.903 72.671 154.903 72.825V74.505C154.903 74.659 154.854 74.785 154.756 74.883C154.658 74.981 154.532 75.03 154.378 75.03H147.574V78.306H153.916C154.07 78.306 154.196 78.355 154.294 78.453C154.392 78.551 154.441 78.677 154.441 78.831V80.385C154.441 80.525 154.392 80.651 154.294 80.763C154.196 80.861 154.07 80.91 153.916 80.91H147.574V84.27H154.546C154.7 84.27 154.826 84.319 154.924 84.417C155.022 84.515 155.071 84.641 155.071 84.795V86.475C155.071 86.629 155.022 86.755 154.924 86.853C154.826 86.951 154.7 87 154.546 87H144.844ZM158.092 87C157.952 87 157.833 86.951 157.735 86.853C157.637 86.755 157.588 86.629 157.588 86.475V72.825C157.588 72.671 157.637 72.545 157.735 72.447C157.833 72.349 157.952 72.3 158.092 72.3H163.678C165.428 72.3 166.807 72.706 167.815 73.518C168.823 74.316 169.327 75.471 169.327 76.983C169.327 78.005 169.082 78.859 168.592 79.545C168.102 80.231 167.444 80.742 166.618 81.078L169.6 86.328C169.642 86.412 169.663 86.489 169.663 86.559C169.663 86.671 169.614 86.776 169.516 86.874C169.432 86.958 169.334 87 169.222 87H166.87C166.618 87 166.429 86.937 166.303 86.811C166.177 86.671 166.086 86.545 166.03 86.433L163.468 81.624H160.927V86.475C160.927 86.629 160.878 86.755 160.78 86.853C160.682 86.951 160.556 87 160.402 87H158.092ZM160.927 78.957H163.636C164.392 78.957 164.952 78.782 165.316 78.432C165.694 78.082 165.883 77.592 165.883 76.962C165.883 76.332 165.701 75.835 165.337 75.471C164.973 75.107 164.406 74.925 163.636 74.925H160.927V78.957ZM177.679 87.21C176.405 87.21 175.306 87 174.382 86.58C173.458 86.16 172.737 85.53 172.219 84.69C171.701 83.836 171.421 82.765 171.379 81.477C171.365 80.875 171.358 80.28 171.358 79.692C171.358 79.09 171.365 78.481 171.379 77.865C171.421 76.605 171.701 75.548 172.219 74.694C172.751 73.826 173.479 73.175 174.403 72.741C175.341 72.307 176.433 72.09 177.679 72.09C178.911 72.09 179.989 72.307 180.913 72.741C181.851 73.175 182.586 73.826 183.118 74.694C183.65 75.548 183.937 76.605 183.979 77.865C184.007 78.481 184.021 79.09 184.021 79.692C184.021 80.28 184.007 80.875 183.979 81.477C183.937 82.765 183.65 83.836 183.118 84.69C182.6 85.53 181.879 86.16 180.955 86.58C180.031 87 178.939 87.21 177.679 87.21ZM177.679 84.48C178.491 84.48 179.156 84.235 179.674 83.745C180.206 83.255 180.486 82.464 180.514 81.372C180.542 80.756 180.556 80.182 180.556 79.65C180.556 79.104 180.542 78.53 180.514 77.928C180.5 77.2 180.367 76.605 180.115 76.143C179.863 75.681 179.527 75.345 179.107 75.135C178.701 74.925 178.225 74.82 177.679 74.82C177.147 74.82 176.671 74.925 176.251 75.135C175.831 75.345 175.495 75.681 175.243 76.143C174.991 76.605 174.851 77.2 174.823 77.928C174.809 78.53 174.802 79.104 174.802 79.65C174.802 80.182 174.809 80.756 174.823 81.372C174.865 82.464 175.145 83.255 175.663 83.745C176.181 84.235 176.853 84.48 177.679 84.48ZM192.508 87.21C191.192 87.21 190.065 86.993 189.127 86.559C188.203 86.111 187.482 85.467 186.964 84.627C186.46 83.773 186.187 82.744 186.145 81.54C186.131 80.938 186.124 80.294 186.124 79.608C186.124 78.922 186.131 78.271 186.145 77.655C186.187 76.479 186.46 75.478 186.964 74.652C187.482 73.826 188.21 73.196 189.148 72.762C190.1 72.314 191.22 72.09 192.508 72.09C193.544 72.09 194.454 72.223 195.238 72.489C196.022 72.755 196.68 73.105 197.212 73.539C197.758 73.959 198.164 74.421 198.43 74.925C198.71 75.429 198.857 75.919 198.871 76.395C198.871 76.521 198.829 76.626 198.745 76.71C198.661 76.794 198.549 76.836 198.409 76.836H195.805C195.665 76.836 195.553 76.808 195.469 76.752C195.399 76.696 195.336 76.612 195.28 76.5C195.182 76.262 195.021 76.01 194.797 75.744C194.587 75.478 194.3 75.261 193.936 75.093C193.572 74.911 193.096 74.82 192.508 74.82C191.626 74.82 190.926 75.051 190.408 75.513C189.904 75.975 189.631 76.724 189.589 77.76C189.547 78.964 189.547 80.189 189.589 81.435C189.631 82.513 189.918 83.29 190.45 83.766C190.982 84.242 191.682 84.48 192.55 84.48C193.124 84.48 193.635 84.382 194.083 84.186C194.545 83.976 194.909 83.661 195.175 83.241C195.441 82.807 195.574 82.254 195.574 81.582V81.057H193.285C193.145 81.057 193.026 81.008 192.928 80.91C192.83 80.798 192.781 80.672 192.781 80.532V79.188C192.781 79.034 192.83 78.908 192.928 78.81C193.026 78.712 193.145 78.663 193.285 78.663H198.451C198.605 78.663 198.731 78.712 198.829 78.81C198.927 78.908 198.976 79.034 198.976 79.188V81.477C198.976 82.681 198.71 83.71 198.178 84.564C197.646 85.418 196.89 86.076 195.91 86.538C194.944 86.986 193.81 87.21 192.508 87.21ZM202.02 87C201.88 87 201.761 86.951 201.663 86.853C201.565 86.755 201.516 86.629 201.516 86.475V72.825C201.516 72.671 201.565 72.545 201.663 72.447C201.761 72.349 201.88 72.3 202.02 72.3H211.554C211.708 72.3 211.834 72.349 211.932 72.447C212.03 72.545 212.079 72.671 212.079 72.825V74.505C212.079 74.659 212.03 74.785 211.932 74.883C211.834 74.981 211.708 75.03 211.554 75.03H204.75V78.306H211.092C211.246 78.306 211.372 78.355 211.47 78.453C211.568 78.551 211.617 78.677 211.617 78.831V80.385C211.617 80.525 211.568 80.651 211.47 80.763C211.372 80.861 211.246 80.91 211.092 80.91H204.75V84.27H211.722C211.876 84.27 212.002 84.319 212.1 84.417C212.198 84.515 212.247 84.641 212.247 84.795V86.475C212.247 86.629 212.198 86.755 212.1 86.853C212.002 86.951 211.876 87 211.722 87H202.02ZM220.479 87.21C219.205 87.21 218.106 87 217.182 86.58C216.258 86.16 215.537 85.53 215.019 84.69C214.501 83.836 214.221 82.765 214.179 81.477C214.165 80.875 214.158 80.28 214.158 79.692C214.158 79.09 214.165 78.481 214.179 77.865C214.221 76.605 214.501 75.548 215.019 74.694C215.551 73.826 216.279 73.175 217.203 72.741C218.141 72.307 219.233 72.09 220.479 72.09C221.711 72.09 222.789 72.307 223.713 72.741C224.651 73.175 225.386 73.826 225.918 74.694C226.45 75.548 226.737 76.605 226.779 77.865C226.807 78.481 226.821 79.09 226.821 79.692C226.821 80.28 226.807 80.875 226.779 81.477C226.737 82.765 226.45 83.836 225.918 84.69C225.4 85.53 224.679 86.16 223.755 86.58C222.831 87 221.739 87.21 220.479 87.21ZM220.479 84.48C221.291 84.48 221.956 84.235 222.474 83.745C223.006 83.255 223.286 82.464 223.314 81.372C223.342 80.756 223.356 80.182 223.356 79.65C223.356 79.104 223.342 78.53 223.314 77.928C223.3 77.2 223.167 76.605 222.915 76.143C222.663 75.681 222.327 75.345 221.907 75.135C221.501 74.925 221.025 74.82 220.479 74.82C219.947 74.82 219.471 74.925 219.051 75.135C218.631 75.345 218.295 75.681 218.043 76.143C217.791 76.605 217.651 77.2 217.623 77.928C217.609 78.53 217.602 79.104 217.602 79.65C217.602 80.182 217.609 80.756 217.623 81.372C217.665 82.464 217.945 83.255 218.463 83.745C218.981 84.235 219.653 84.48 220.479 84.48ZM229.911 87C229.771 87 229.652 86.951 229.554 86.853C229.456 86.755 229.407 86.629 229.407 86.475V72.825C229.407 72.671 229.456 72.545 229.554 72.447C229.652 72.349 229.771 72.3 229.911 72.3H235.203C236.603 72.3 237.772 72.524 238.71 72.972C239.648 73.406 240.362 74.05 240.852 74.904C241.356 75.744 241.622 76.787 241.65 78.033C241.678 78.649 241.692 79.188 241.692 79.65C241.692 80.112 241.678 80.644 241.65 81.246C241.608 82.548 241.349 83.626 240.873 84.48C240.397 85.334 239.697 85.971 238.773 86.391C237.863 86.797 236.708 87 235.308 87H229.911ZM232.746 84.27H235.203C235.903 84.27 236.47 84.172 236.904 83.976C237.352 83.766 237.688 83.437 237.912 82.989C238.136 82.527 238.255 81.932 238.269 81.204C238.283 80.798 238.29 80.434 238.29 80.112C238.304 79.79 238.304 79.468 238.29 79.146C238.29 78.824 238.283 78.467 238.269 78.075C238.241 77.025 237.968 76.255 237.45 75.765C236.946 75.275 236.162 75.03 235.098 75.03H232.746V84.27ZM244.799 87C244.659 87 244.54 86.951 244.442 86.853C244.344 86.755 244.295 86.629 244.295 86.475V72.825C244.295 72.671 244.344 72.545 244.442 72.447C244.54 72.349 244.659 72.3 244.799 72.3H254.333C254.487 72.3 254.613 72.349 254.711 72.447C254.809 72.545 254.858 72.671 254.858 72.825V74.505C254.858 74.659 254.809 74.785 254.711 74.883C254.613 74.981 254.487 75.03 254.333 75.03H247.529V78.306H253.871C254.025 78.306 254.151 78.355 254.249 78.453C254.347 78.551 254.396 78.677 254.396 78.831V80.385C254.396 80.525 254.347 80.651 254.249 80.763C254.151 80.861 254.025 80.91 253.871 80.91H247.529V84.27H254.501C254.655 84.27 254.781 84.319 254.879 84.417C254.977 84.515 255.026 84.641 255.026 84.795V86.475C255.026 86.629 254.977 86.755 254.879 86.853C254.781 86.951 254.655 87 254.501 87H244.799ZM257.312 87C257.158 87 257.032 86.951 256.934 86.853C256.836 86.741 256.787 86.615 256.787 86.475V84.711C256.787 84.515 256.829 84.354 256.913 84.228C256.997 84.102 257.06 84.011 257.102 83.955L264.158 75.114H257.501C257.361 75.114 257.242 75.065 257.144 74.967C257.046 74.869 256.997 74.743 256.997 74.589V72.825C256.997 72.671 257.046 72.545 257.144 72.447C257.242 72.349 257.361 72.3 257.501 72.3H267.833C267.987 72.3 268.113 72.349 268.211 72.447C268.309 72.545 268.358 72.671 268.358 72.825V74.568C268.358 74.722 268.33 74.862 268.274 74.988C268.218 75.1 268.155 75.198 268.085 75.282L261.218 84.165H268.064C268.218 84.165 268.344 84.214 268.442 84.312C268.54 84.41 268.589 84.536 268.589 84.69V86.475C268.589 86.629 268.54 86.755 268.442 86.853C268.344 86.951 268.218 87 268.064 87H257.312ZM271.439 87C271.299 87 271.18 86.951 271.082 86.853C270.984 86.755 270.935 86.629 270.935 86.475V72.825C270.935 72.671 270.984 72.545 271.082 72.447C271.18 72.349 271.299 72.3 271.439 72.3H273.854C273.994 72.3 274.113 72.349 274.211 72.447C274.309 72.545 274.358 72.671 274.358 72.825V86.475C274.358 86.629 274.309 86.755 274.211 86.853C274.113 86.951 273.994 87 273.854 87H271.439ZM281.803 87C281.649 87 281.523 86.951 281.425 86.853C281.327 86.755 281.278 86.629 281.278 86.475V81.855L276.364 72.972C276.35 72.93 276.336 72.895 276.322 72.867C276.308 72.825 276.301 72.783 276.301 72.741C276.301 72.629 276.343 72.531 276.427 72.447C276.525 72.349 276.63 72.3 276.742 72.3H278.989C279.171 72.3 279.318 72.349 279.43 72.447C279.542 72.545 279.619 72.636 279.661 72.72L282.958 78.495L286.255 72.72C286.297 72.636 286.374 72.545 286.486 72.447C286.598 72.349 286.752 72.3 286.948 72.3H289.174C289.3 72.3 289.405 72.349 289.489 72.447C289.573 72.531 289.615 72.629 289.615 72.741C289.615 72.783 289.608 72.825 289.594 72.867C289.594 72.895 289.58 72.93 289.552 72.972L284.638 81.855V86.475C284.638 86.629 284.589 86.755 284.491 86.853C284.393 86.951 284.267 87 284.113 87H281.803ZM289.064 87C288.938 87 288.833 86.958 288.749 86.874C288.665 86.776 288.623 86.671 288.623 86.559C288.623 86.489 288.63 86.426 288.644 86.37L293.642 72.867C293.684 72.713 293.768 72.58 293.894 72.468C294.02 72.356 294.195 72.3 294.419 72.3H297.107C297.331 72.3 297.506 72.356 297.632 72.468C297.758 72.58 297.849 72.713 297.905 72.867L302.882 86.37C302.91 86.426 302.924 86.489 302.924 86.559C302.924 86.671 302.875 86.776 302.777 86.874C302.693 86.958 302.588 87 302.462 87H300.257C300.061 87 299.914 86.951 299.816 86.853C299.718 86.755 299.655 86.664 299.627 86.58L298.724 84.228H292.802L291.92 86.58C291.878 86.664 291.808 86.755 291.71 86.853C291.626 86.951 291.479 87 291.269 87H289.064ZM293.6 81.519H297.926L295.763 75.492L293.6 81.519ZM309.338 87C309.184 87 309.058 86.951 308.96 86.853C308.862 86.755 308.813 86.629 308.813 86.475V72.825C308.813 72.671 308.862 72.545 308.96 72.447C309.058 72.349 309.184 72.3 309.338 72.3H311.312C311.522 72.3 311.676 72.356 311.774 72.468C311.886 72.58 311.956 72.664 311.984 72.72L315.869 79.818L319.754 72.72C319.782 72.664 319.845 72.58 319.943 72.468C320.055 72.356 320.216 72.3 320.426 72.3H322.379C322.533 72.3 322.659 72.349 322.757 72.447C322.855 72.545 322.904 72.671 322.904 72.825V86.475C322.904 86.629 322.855 86.755 322.757 86.853C322.659 86.951 322.533 87 322.379 87H320.237C320.097 87 319.978 86.951 319.88 86.853C319.782 86.755 319.733 86.629 319.733 86.475V78.012L317.066 82.989C317.01 83.115 316.926 83.227 316.814 83.325C316.702 83.423 316.548 83.472 316.352 83.472H315.365C315.183 83.472 315.036 83.423 314.924 83.325C314.812 83.227 314.721 83.115 314.651 82.989L312.005 78.012V86.475C312.005 86.629 311.956 86.755 311.858 86.853C311.76 86.951 311.634 87 311.48 87H309.338ZM325.158 87C325.032 87 324.927 86.958 324.843 86.874C324.759 86.776 324.717 86.671 324.717 86.559C324.717 86.489 324.724 86.426 324.738 86.37L329.736 72.867C329.778 72.713 329.862 72.58 329.988 72.468C330.114 72.356 330.289 72.3 330.513 72.3H333.201C333.425 72.3 333.6 72.356 333.726 72.468C333.852 72.58 333.943 72.713 333.999 72.867L338.976 86.37C339.004 86.426 339.018 86.489 339.018 86.559C339.018 86.671 338.969 86.776 338.871 86.874C338.787 86.958 338.682 87 338.556 87H336.351C336.155 87 336.008 86.951 335.91 86.853C335.812 86.755 335.749 86.664 335.721 86.58L334.818 84.228H328.896L328.014 86.58C327.972 86.664 327.902 86.755 327.804 86.853C327.72 86.951 327.573 87 327.363 87H325.158ZM329.694 81.519H334.02L331.857 75.492L329.694 81.519ZM341.309 87C341.169 87 341.05 86.951 340.952 86.853C340.854 86.755 340.805 86.629 340.805 86.475V72.825C340.805 72.671 340.854 72.545 340.952 72.447C341.05 72.349 341.169 72.3 341.309 72.3H346.895C348.645 72.3 350.024 72.706 351.032 73.518C352.04 74.316 352.544 75.471 352.544 76.983C352.544 78.005 352.299 78.859 351.809 79.545C351.319 80.231 350.661 80.742 349.835 81.078L352.817 86.328C352.859 86.412 352.88 86.489 352.88 86.559C352.88 86.671 352.831 86.776 352.733 86.874C352.649 86.958 352.551 87 352.439 87H350.087C349.835 87 349.646 86.937 349.52 86.811C349.394 86.671 349.303 86.545 349.247 86.433L346.685 81.624H344.144V86.475C344.144 86.629 344.095 86.755 343.997 86.853C343.899 86.951 343.773 87 343.619 87H341.309ZM344.144 78.957H346.853C347.609 78.957 348.169 78.782 348.533 78.432C348.911 78.082 349.1 77.592 349.1 76.962C349.1 76.332 348.918 75.835 348.554 75.471C348.19 75.107 347.623 74.925 346.853 74.925H344.144V78.957ZM355.623 87C355.483 87 355.364 86.951 355.266 86.853C355.168 86.755 355.119 86.629 355.119 86.475V72.825C355.119 72.671 355.168 72.545 355.266 72.447C355.364 72.349 355.483 72.3 355.623 72.3H357.891C358.045 72.3 358.171 72.349 358.269 72.447C358.367 72.545 358.416 72.671 358.416 72.825V77.613L362.721 72.699C362.777 72.615 362.868 72.531 362.994 72.447C363.134 72.349 363.316 72.3 363.54 72.3H366.102C366.214 72.3 366.312 72.349 366.396 72.447C366.494 72.531 366.543 72.629 366.543 72.741C366.543 72.839 366.515 72.923 366.459 72.993L361.062 79.335L366.858 86.307C366.914 86.363 366.942 86.447 366.942 86.559C366.942 86.671 366.893 86.776 366.795 86.874C366.711 86.958 366.613 87 366.501 87H363.855C363.603 87 363.414 86.944 363.288 86.832C363.162 86.72 363.078 86.643 363.036 86.601L358.416 81.225V86.475C358.416 86.629 358.367 86.755 358.269 86.853C358.171 86.951 358.045 87 357.891 87H355.623ZM367.855 87C367.729 87 367.624 86.958 367.54 86.874C367.456 86.776 367.414 86.671 367.414 86.559C367.414 86.489 367.421 86.426 367.435 86.37L372.433 72.867C372.475 72.713 372.559 72.58 372.685 72.468C372.811 72.356 372.986 72.3 373.21 72.3H375.898C376.122 72.3 376.297 72.356 376.423 72.468C376.549 72.58 376.64 72.713 376.696 72.867L381.673 86.37C381.701 86.426 381.715 86.489 381.715 86.559C381.715 86.671 381.666 86.776 381.568 86.874C381.484 86.958 381.379 87 381.253 87H379.048C378.852 87 378.705 86.951 378.607 86.853C378.509 86.755 378.446 86.664 378.418 86.58L377.515 84.228H371.593L370.711 86.58C370.669 86.664 370.599 86.755 370.501 86.853C370.417 86.951 370.27 87 370.06 87H367.855ZM372.391 81.519H376.717L374.554 75.492L372.391 81.519ZM383.271 87C383.117 87 382.991 86.951 382.893 86.853C382.795 86.741 382.746 86.615 382.746 86.475V84.711C382.746 84.515 382.788 84.354 382.872 84.228C382.956 84.102 383.019 84.011 383.061 83.955L390.117 75.114H383.46C383.32 75.114 383.201 75.065 383.103 74.967C383.005 74.869 382.956 74.743 382.956 74.589V72.825C382.956 72.671 383.005 72.545 383.103 72.447C383.201 72.349 383.32 72.3 383.46 72.3H393.792C393.946 72.3 394.072 72.349 394.17 72.447C394.268 72.545 394.317 72.671 394.317 72.825V74.568C394.317 74.722 394.289 74.862 394.233 74.988C394.177 75.1 394.114 75.198 394.044 75.282L387.177 84.165H394.023C394.177 84.165 394.303 84.214 394.401 84.312C394.499 84.41 394.548 84.536 394.548 84.69V86.475C394.548 86.629 394.499 86.755 394.401 86.853C394.303 86.951 394.177 87 394.023 87H383.271ZM397.398 87C397.258 87 397.139 86.951 397.041 86.853C396.943 86.755 396.894 86.629 396.894 86.475V72.825C396.894 72.671 396.943 72.545 397.041 72.447C397.139 72.349 397.258 72.3 397.398 72.3H399.813C399.953 72.3 400.072 72.349 400.17 72.447C400.268 72.545 400.317 72.671 400.317 72.825V86.475C400.317 86.629 400.268 86.755 400.17 86.853C400.072 86.951 399.953 87 399.813 87H397.398Z" fill="#243C52"/>
<path d="M131.8 53C131.507 53 131.267 52.9067 131.08 52.72C130.893 52.5067 130.8 52.2667 130.8 52V26C130.8 25.7067 130.893 25.4667 131.08 25.28C131.267 25.0933 131.507 25 131.8 25H142.68C146.147 25 148.867 25.8 150.84 27.4C152.813 28.9733 153.8 31.2133 153.8 34.12C153.8 36.0133 153.347 37.6133 152.44 38.92C151.533 40.2267 150.333 41.2133 148.84 41.88L154.32 51.72C154.4 51.88 154.44 52.0267 154.44 52.16C154.44 52.3733 154.347 52.5733 154.16 52.76C154 52.92 153.813 53 153.6 53H148.28C147.773 53 147.4 52.88 147.16 52.64C146.92 52.3733 146.747 52.1333 146.64 51.92L142.08 43.12H138V52C138 52.2667 137.893 52.5067 137.68 52.72C137.493 52.9067 137.253 53 136.96 53H131.8ZM138 37.44H142.6C143.853 37.44 144.787 37.1333 145.4 36.52C146.04 35.9067 146.36 35.08 146.36 34.04C146.36 33 146.053 32.16 145.44 31.52C144.853 30.88 143.907 30.56 142.6 30.56H138V37.44ZM161.456 53C161.163 53 160.923 52.9067 160.736 52.72C160.55 52.5067 160.456 52.2667 160.456 52V26C160.456 25.7067 160.55 25.4667 160.736 25.28C160.923 25.0933 161.163 25 161.456 25H180.136C180.43 25 180.67 25.0933 180.856 25.28C181.043 25.4667 181.136 25.7067 181.136 26V29.76C181.136 30.0533 181.043 30.2933 180.856 30.48C180.67 30.6667 180.43 30.76 180.136 30.76H167.376V36.16H179.256C179.55 36.16 179.79 36.2667 179.976 36.48C180.163 36.6667 180.256 36.9067 180.256 37.2V40.68C180.256 40.9467 180.163 41.1867 179.976 41.4C179.79 41.5867 179.55 41.68 179.256 41.68H167.376V47.24H180.456C180.75 47.24 180.99 47.3333 181.176 47.52C181.363 47.7067 181.456 47.9467 181.456 48.24V52C181.456 52.2667 181.363 52.5067 181.176 52.72C180.99 52.9067 180.75 53 180.456 53H161.456ZM198.443 53.4C195.776 53.4 193.563 53.0267 191.803 52.28C190.043 51.5067 188.71 50.5067 187.803 49.28C186.896 48.0533 186.416 46.7467 186.363 45.36C186.363 45.1467 186.443 44.96 186.603 44.8C186.79 44.6133 187.003 44.52 187.243 44.52H192.283C192.656 44.52 192.936 44.5867 193.123 44.72C193.336 44.8533 193.523 45.0267 193.683 45.24C193.896 45.64 194.19 46.0267 194.563 46.4C194.963 46.7733 195.483 47.08 196.123 47.32C196.763 47.5333 197.536 47.64 198.443 47.64C199.99 47.64 201.15 47.4 201.923 46.92C202.723 46.44 203.123 45.7867 203.123 44.96C203.123 44.3467 202.91 43.8533 202.483 43.48C202.056 43.1067 201.363 42.7733 200.403 42.48C199.47 42.16 198.216 41.84 196.643 41.52C194.616 41.0933 192.883 40.5467 191.443 39.88C190.03 39.1867 188.95 38.2933 188.203 37.2C187.456 36.08 187.083 34.6933 187.083 33.04C187.083 31.4133 187.536 29.96 188.443 28.68C189.376 27.4 190.67 26.4 192.323 25.68C193.976 24.96 195.936 24.6 198.203 24.6C200.043 24.6 201.656 24.84 203.043 25.32C204.456 25.8 205.643 26.44 206.603 27.24C207.563 28.04 208.283 28.8933 208.763 29.8C209.27 30.68 209.536 31.5467 209.563 32.4C209.563 32.6133 209.483 32.8133 209.323 33C209.19 33.16 208.99 33.24 208.723 33.24H203.443C203.15 33.24 202.896 33.1867 202.683 33.08C202.47 32.9733 202.283 32.8 202.123 32.56C201.963 31.9733 201.536 31.4667 200.843 31.04C200.176 30.5867 199.296 30.36 198.203 30.36C197.03 30.36 196.11 30.5733 195.443 31C194.803 31.4 194.483 32.0267 194.483 32.88C194.483 33.4133 194.656 33.88 195.003 34.28C195.376 34.68 195.976 35.0267 196.803 35.32C197.656 35.6133 198.816 35.92 200.283 36.24C202.71 36.6933 204.67 37.2667 206.163 37.96C207.656 38.6267 208.75 39.5067 209.443 40.6C210.163 41.6667 210.523 43.0133 210.523 44.64C210.523 46.4533 210.003 48.0133 208.963 49.32C207.923 50.6267 206.496 51.64 204.683 52.36C202.896 53.0533 200.816 53.4 198.443 53.4ZM217.527 53C217.233 53 216.993 52.9067 216.807 52.72C216.62 52.5067 216.527 52.2667 216.527 52V26C216.527 25.7067 216.62 25.4667 216.807 25.28C216.993 25.0933 217.233 25 217.527 25H228.727C230.94 25 232.86 25.3467 234.487 26.04C236.14 26.7067 237.42 27.72 238.327 29.08C239.26 30.44 239.727 32.16 239.727 34.24C239.727 36.2933 239.26 37.9867 238.327 39.32C237.42 40.6533 236.14 41.64 234.487 42.28C232.86 42.92 230.94 43.24 228.727 43.24H223.967V52C223.967 52.2667 223.86 52.5067 223.647 52.72C223.46 52.9067 223.22 53 222.927 53H217.527ZM223.847 37.72H228.527C229.673 37.72 230.58 37.4267 231.247 36.84C231.94 36.2533 232.287 35.36 232.287 34.16C232.287 33.1467 231.993 32.2933 231.407 31.6C230.82 30.9067 229.86 30.56 228.527 30.56H223.847V37.72ZM257.318 53.4C254.891 53.4 252.771 53.0133 250.958 52.24C249.171 51.44 247.784 50.2267 246.798 48.6C245.811 46.9467 245.318 44.8533 245.318 42.32V26C245.318 25.7067 245.411 25.4667 245.598 25.28C245.784 25.0933 246.024 25 246.318 25H251.478C251.771 25 252.011 25.0933 252.198 25.28C252.411 25.4667 252.518 25.7067 252.518 26V42.28C252.518 44.0133 252.931 45.32 253.758 46.2C254.584 47.0533 255.758 47.48 257.278 47.48C258.771 47.48 259.931 47.0533 260.758 46.2C261.611 45.32 262.038 44.0133 262.038 42.28V26C262.038 25.7067 262.131 25.4667 262.318 25.28C262.531 25.0933 262.771 25 263.038 25H268.238C268.504 25 268.731 25.0933 268.918 25.28C269.131 25.4667 269.238 25.7067 269.238 26V42.32C269.238 44.8533 268.744 46.9467 267.758 48.6C266.771 50.2267 265.384 51.44 263.598 52.24C261.811 53.0133 259.718 53.4 257.318 53.4ZM277.542 53C277.249 53 277.009 52.9067 276.822 52.72C276.636 52.5067 276.542 52.2667 276.542 52V26C276.542 25.7067 276.636 25.4667 276.822 25.28C277.009 25.0933 277.249 25 277.542 25H289.742C292.036 25 293.916 25.32 295.382 25.96C296.849 26.6 297.929 27.52 298.622 28.72C299.342 29.8933 299.702 31.2933 299.702 32.92C299.702 33.88 299.516 34.7333 299.142 35.48C298.796 36.2 298.356 36.8 297.822 37.28C297.316 37.76 296.836 38.1067 296.382 38.32C297.396 38.8 298.289 39.5867 299.062 40.68C299.862 41.7733 300.262 43.0533 300.262 44.52C300.262 46.28 299.862 47.8 299.062 49.08C298.289 50.3333 297.142 51.3067 295.622 52C294.129 52.6667 292.289 53 290.102 53H277.542ZM283.742 47.8H289.302C290.449 47.8 291.316 47.4667 291.902 46.8C292.489 46.1333 292.782 45.3733 292.782 44.52C292.782 43.5867 292.476 42.8 291.862 42.16C291.276 41.52 290.422 41.2 289.302 41.2H283.742V47.8ZM283.742 36.12H288.942C290.036 36.12 290.849 35.84 291.382 35.28C291.942 34.6933 292.222 33.9733 292.222 33.12C292.222 32.2667 291.942 31.5733 291.382 31.04C290.849 30.48 290.036 30.2 288.942 30.2H283.742V36.12ZM307.706 53C307.413 53 307.173 52.9067 306.986 52.72C306.8 52.5067 306.706 52.2667 306.706 52V26C306.706 25.7067 306.8 25.4667 306.986 25.28C307.173 25.0933 307.413 25 307.706 25H312.986C313.28 25 313.52 25.0933 313.706 25.28C313.893 25.4667 313.986 25.7067 313.986 26V46.96H326.106C326.4 46.96 326.64 47.0667 326.826 47.28C327.013 47.4667 327.106 47.7067 327.106 48V52C327.106 52.2667 327.013 52.5067 326.826 52.72C326.64 52.9067 326.4 53 326.106 53H307.706ZM333.573 53C333.28 53 333.04 52.9067 332.853 52.72C332.667 52.5067 332.573 52.2667 332.573 52V26C332.573 25.7067 332.667 25.4667 332.853 25.28C333.04 25.0933 333.28 25 333.573 25H338.933C339.227 25 339.467 25.0933 339.653 25.28C339.867 25.4667 339.973 25.7067 339.973 26V52C339.973 52.2667 339.867 52.5067 339.653 52.72C339.467 52.9067 339.227 53 338.933 53H333.573ZM348.542 53C348.249 53 348.009 52.9067 347.822 52.72C347.636 52.5067 347.542 52.2667 347.542 52V26C347.542 25.7067 347.636 25.4667 347.822 25.28C348.009 25.0933 348.249 25 348.542 25H353.582C353.876 25 354.116 25.0933 354.302 25.28C354.489 25.4667 354.582 25.7067 354.582 26V34.88L361.982 25.76C362.089 25.6 362.262 25.44 362.502 25.28C362.769 25.0933 363.116 25 363.542 25H369.302C369.542 25 369.742 25.0933 369.902 25.28C370.062 25.44 370.142 25.6267 370.142 25.84C370.142 26.0267 370.102 26.1867 370.022 26.32L360.422 38.4L370.742 51.68C370.849 51.7867 370.902 51.9467 370.902 52.16C370.902 52.3733 370.822 52.5733 370.662 52.76C370.502 52.92 370.302 53 370.062 53H364.102C363.622 53 363.249 52.8933 362.982 52.68C362.742 52.4667 362.582 52.3067 362.502 52.2L354.582 42.32V52C354.582 52.2667 354.489 52.5067 354.302 52.72C354.116 52.9067 353.876 53 353.582 53H348.542ZM374.466 53C374.252 53 374.052 52.92 373.866 52.76C373.706 52.5733 373.626 52.3733 373.626 52.16C373.626 52.0267 373.639 51.9067 373.666 51.8L383.066 26.12C383.146 25.8267 383.306 25.5733 383.546 25.36C383.812 25.12 384.172 25 384.626 25H390.546C390.999 25 391.346 25.12 391.586 25.36C391.852 25.5733 392.026 25.8267 392.106 26.12L401.466 51.8C401.519 51.9067 401.546 52.0267 401.546 52.16C401.546 52.3733 401.452 52.5733 401.266 52.76C401.106 52.92 400.906 53 400.666 53H395.746C395.346 53 395.039 52.9067 394.826 52.72C394.639 52.5067 394.519 52.32 394.466 52.16L392.906 48.08H382.226L380.706 52.16C380.652 52.32 380.532 52.5067 380.346 52.72C380.159 52.9067 379.839 53 379.386 53H374.466ZM383.866 42.32H391.306L387.586 31.76L383.866 42.32Z" fill="#243C52"/>
<g clip-path="url(#clip0_15_41)">
<path d="M90.53 51.91C90.5253 59.5584 88.5838 67.0811 84.8864 73.7765C81.189 80.4718 75.8562 86.1218 69.3854 90.1994C62.9145 94.277 55.5164 96.6494 47.881 97.0954C40.2456 97.5414 32.6216 96.0465 25.72 92.75L56 55.3L69.76 38.62L45.08 86.37H45.26C51.4321 86.3699 57.4911 84.7126 62.804 81.5712C68.1169 78.4297 72.4888 73.9193 75.4632 68.5111C78.4376 63.1029 79.9052 56.9952 79.7129 50.826C79.5206 44.6568 77.6754 38.6525 74.37 33.44L81.59 24.9C87.4055 32.7033 90.5415 42.178 90.53 51.91Z" fill="#243C52"/>
<path d="M57.48 28L10.8 52.3V51.91C10.8002 45.762 12.4447 39.7258 15.5631 34.4273C18.6816 29.1288 23.1603 24.7608 28.5352 21.776C33.9101 18.7911 39.9855 17.2982 46.1317 17.4519C52.2778 17.6056 58.271 19.4003 63.49 22.65L72.49 15.74C64.3741 9.62773 54.438 6.42329 44.2802 6.64223C34.1225 6.86118 24.3337 10.4908 16.4887 16.9471C8.64366 23.4034 3.19859 32.311 1.02948 42.2369C-1.13963 52.1628 0.0933328 62.5298 4.53001 71.67L57.48 28Z" fill="#243C52"/>
<path d="M16.34 71.05L77 20.31L18.73 88.77C14.6229 85.8313 11.031 82.2326 8.1 78.12V78.07L8 78L16.34 71.05Z" fill="#243C52"/>
<path d="M97.74 0L73.66 10.38C75.8786 11.4814 77.9996 12.7693 80 14.23L89.47 8.31L83.39 17.62C84.9862 19.6867 86.462 21.8436 87.81 24.08L97.74 0Z" fill="#243C52"/>
<path d="M39.74 96.84C39.74 96.84 38.82 96.73 38.33 96.65C33.9275 95.978 29.6481 94.6605 25.63 92.74L55.86 55.29L69.67 38.61L45 86.37L39.74 96.84Z" fill="#B40909"/>
<path d="M57.48 28L10.8 52.3L0.369995 57.74L0.449995 58.3C1.10734 62.9415 2.48385 67.4523 4.53 71.67L57.48 28Z" fill="#B40909"/>
<path d="M16.34 71.05L77 20.31L18.73 88.77C14.6229 85.8313 11.031 82.2326 8.1 78.12V78.07L8 78L16.34 71.05Z" fill="#B40909"/>
<path d="M97.74 0L73.66 10.38C75.879 11.4807 78 12.7687 80 14.23L89.47 8.31L83.39 17.62C84.9869 19.6862 86.4627 21.8431 87.81 24.08L97.74 0Z" fill="#B40909"/>
</g>
<defs>
<clipPath id="clip0_15_41">
<rect width="97.74" height="97.17" fill="white"/>
</clipPath>
</defs>
</svg>
