<svg width="406" height="98" viewBox="0 0 406 98" fill="none" xmlns="http://www.w3.org/2000/svg">
<path d="M130.156 41C130.009 41 129.885 40.9487 129.782 40.846C129.679 40.7433 129.628 40.6113 129.628 40.45V26.15C129.628 25.9887 129.679 25.8567 129.782 25.754C129.885 25.6513 130.009 25.6 130.156 25.6H136.184C137.372 25.6 138.406 25.7833 139.286 26.15C140.166 26.5167 140.848 27.074 141.332 27.822C141.816 28.5553 142.058 29.4793 142.058 30.594C142.058 31.694 141.816 32.6107 141.332 33.344C140.848 34.0627 140.166 34.598 139.286 34.95C138.406 35.302 137.372 35.478 136.184 35.478H133.236V40.45C133.236 40.6113 133.185 40.7433 133.082 40.846C132.979 40.9487 132.847 41 132.686 41H130.156ZM133.192 32.75H136.074C136.822 32.75 137.401 32.5667 137.812 32.2C138.223 31.8333 138.428 31.2907 138.428 30.572C138.428 29.912 138.237 29.3767 137.856 28.966C137.489 28.5553 136.895 28.35 136.074 28.35H133.192V32.75ZM149.185 41.22C147.499 41.22 146.157 40.7507 145.159 39.812C144.177 38.8733 143.656 37.5093 143.597 35.72C143.597 35.6027 143.597 35.4487 143.597 35.258C143.597 35.0527 143.597 34.8987 143.597 34.796C143.656 33.652 143.913 32.6767 144.367 31.87C144.822 31.0487 145.46 30.4253 146.281 30C147.103 29.56 148.063 29.34 149.163 29.34C150.41 29.34 151.444 29.5967 152.265 30.11C153.087 30.6087 153.703 31.298 154.113 32.178C154.539 33.0433 154.751 34.0407 154.751 35.17V35.676C154.751 35.8227 154.7 35.9547 154.597 36.072C154.495 36.1747 154.363 36.226 154.201 36.226H147.029C147.029 36.226 147.029 36.248 147.029 36.292C147.029 36.3213 147.029 36.3507 147.029 36.38C147.044 36.8493 147.132 37.282 147.293 37.678C147.455 38.0593 147.689 38.3673 147.997 38.602C148.32 38.8367 148.709 38.954 149.163 38.954C149.515 38.954 149.809 38.9027 150.043 38.8C150.278 38.6827 150.469 38.558 150.615 38.426C150.777 38.2793 150.894 38.1547 150.967 38.052C151.099 37.8907 151.202 37.7953 151.275 37.766C151.363 37.722 151.488 37.7 151.649 37.7H153.981C154.113 37.7 154.223 37.744 154.311 37.832C154.414 37.92 154.458 38.03 154.443 38.162C154.429 38.4113 154.304 38.712 154.069 39.064C153.849 39.4013 153.519 39.7387 153.079 40.076C152.639 40.3987 152.089 40.67 151.429 40.89C150.784 41.11 150.036 41.22 149.185 41.22ZM147.029 34.202H151.319V34.136C151.319 33.6227 151.231 33.1753 151.055 32.794C150.894 32.398 150.652 32.09 150.329 31.87C150.007 31.65 149.618 31.54 149.163 31.54C148.709 31.54 148.32 31.65 147.997 31.87C147.689 32.09 147.447 32.398 147.271 32.794C147.11 33.1753 147.029 33.6227 147.029 34.136V34.202ZM162.076 41.22C160.991 41.22 160.037 41.022 159.216 40.626C158.409 40.23 157.771 39.658 157.302 38.91C156.833 38.1473 156.576 37.238 156.532 36.182C156.517 35.9473 156.51 35.654 156.51 35.302C156.51 34.9353 156.517 34.6347 156.532 34.4C156.576 33.3293 156.825 32.42 157.28 31.672C157.749 30.9093 158.395 30.33 159.216 29.934C160.037 29.538 160.991 29.34 162.076 29.34C163.044 29.34 163.873 29.4793 164.562 29.758C165.251 30.022 165.816 30.3667 166.256 30.792C166.696 31.2027 167.026 31.628 167.246 32.068C167.466 32.508 167.583 32.8967 167.598 33.234C167.613 33.3953 167.561 33.5273 167.444 33.63C167.327 33.7327 167.195 33.784 167.048 33.784H164.694C164.533 33.784 164.408 33.7473 164.32 33.674C164.247 33.6007 164.173 33.4833 164.1 33.322C163.909 32.8087 163.653 32.442 163.33 32.222C163.007 32.002 162.604 31.892 162.12 31.892C161.46 31.892 160.939 32.1047 160.558 32.53C160.191 32.9553 159.993 33.6153 159.964 34.51C159.935 35.082 159.935 35.6027 159.964 36.072C159.993 36.9813 160.191 37.6413 160.558 38.052C160.939 38.4627 161.46 38.668 162.12 38.668C162.633 38.668 163.044 38.558 163.352 38.338C163.66 38.118 163.909 37.7513 164.1 37.238C164.173 37.0767 164.247 36.9593 164.32 36.886C164.408 36.8127 164.533 36.776 164.694 36.776H167.048C167.195 36.776 167.327 36.8273 167.444 36.93C167.561 37.0327 167.613 37.1647 167.598 37.326C167.583 37.5753 167.51 37.8687 167.378 38.206C167.246 38.5433 167.041 38.888 166.762 39.24C166.498 39.592 166.153 39.922 165.728 40.23C165.303 40.5233 164.782 40.7653 164.166 40.956C163.565 41.132 162.868 41.22 162.076 41.22ZM170.262 41C170.115 41 169.983 40.9487 169.866 40.846C169.763 40.7433 169.712 40.6113 169.712 40.45V30.11C169.712 29.9487 169.763 29.8167 169.866 29.714C169.983 29.6113 170.115 29.56 170.262 29.56H180.008C180.169 29.56 180.301 29.6113 180.404 29.714C180.506 29.8167 180.558 29.9487 180.558 30.11V40.45C180.558 40.6113 180.506 40.7433 180.404 40.846C180.301 40.9487 180.169 41 180.008 41H177.808C177.646 41 177.514 40.9487 177.412 40.846C177.309 40.7433 177.258 40.6113 177.258 40.45V32.156H173.012V40.45C173.012 40.6113 172.96 40.7433 172.858 40.846C172.755 40.9487 172.63 41 172.484 41H170.262ZM184.344 45.202C184.182 45.202 184.05 45.1433 183.948 45.026C183.845 44.9233 183.794 44.7987 183.794 44.652V43.134C183.794 42.9727 183.845 42.8407 183.948 42.738C184.05 42.6353 184.182 42.584 184.344 42.584H185.07C185.348 42.584 185.576 42.5327 185.752 42.43C185.942 42.3273 186.111 42.144 186.258 41.88C186.404 41.6307 186.573 41.2933 186.764 40.868L191.23 30C191.274 29.8827 191.347 29.78 191.45 29.692C191.552 29.604 191.692 29.56 191.868 29.56H193.892C194.009 29.56 194.112 29.6113 194.2 29.714C194.302 29.802 194.354 29.9047 194.354 30.022C194.354 30.0513 194.346 30.0953 194.332 30.154C194.332 30.198 194.317 30.2567 194.288 30.33L190.108 40.362C189.829 41.0367 189.536 41.6673 189.228 42.254C188.934 42.8407 188.604 43.354 188.238 43.794C187.886 44.234 187.475 44.5787 187.006 44.828C186.536 45.0773 185.994 45.202 185.378 45.202H184.344ZM187.05 40.736L182.584 30.33C182.525 30.2127 182.496 30.1173 182.496 30.044C182.51 29.912 182.562 29.802 182.65 29.714C182.752 29.6113 182.87 29.56 183.002 29.56H185.114C185.304 29.56 185.444 29.6113 185.532 29.714C185.62 29.802 185.686 29.8973 185.73 30L189.008 38.228L187.05 40.736ZM201.526 41.22C200.25 41.22 199.202 41.0073 198.38 40.582C197.574 40.1567 196.965 39.5187 196.554 38.668C196.158 37.8027 195.924 36.732 195.85 35.456C195.85 35.016 195.85 34.5687 195.85 34.114C195.85 33.6593 195.85 33.2193 195.85 32.794C195.894 31.5473 196.026 30.4987 196.246 29.648C196.481 28.7827 196.826 28.0713 197.28 27.514C197.75 26.942 198.344 26.4727 199.062 26.106C199.796 25.7247 200.668 25.3947 201.68 25.116C202.692 24.8373 203.866 24.544 205.2 24.236C205.347 24.2067 205.486 24.2287 205.618 24.302C205.75 24.3753 205.824 24.4927 205.838 24.654L206.168 26.392C206.198 26.5533 206.176 26.6927 206.102 26.81C206.029 26.9127 205.919 26.9787 205.772 27.008C204.658 27.2427 203.697 27.4553 202.89 27.646C202.098 27.8367 201.446 28.0567 200.932 28.306C200.419 28.5407 200.016 28.856 199.722 29.252C199.444 29.6333 199.253 30.1393 199.15 30.77C199.048 31.386 199.004 32.1707 199.018 33.124L198.512 32.618C198.615 32.1927 198.842 31.8113 199.194 31.474C199.546 31.1367 199.979 30.8653 200.492 30.66C201.006 30.44 201.556 30.33 202.142 30.33C203.198 30.33 204.093 30.5207 204.826 30.902C205.56 31.2833 206.124 31.826 206.52 32.53C206.916 33.2193 207.136 34.048 207.18 35.016C207.224 35.5587 207.224 36.0647 207.18 36.534C207.136 37.4727 206.894 38.3013 206.454 39.02C206.014 39.724 205.384 40.2667 204.562 40.648C203.741 41.0293 202.729 41.22 201.526 41.22ZM201.526 38.998C202.245 38.998 202.788 38.7853 203.154 38.36C203.521 37.92 203.719 37.2747 203.748 36.424C203.763 36.2627 203.77 36.0573 203.77 35.808C203.77 35.544 203.763 35.3093 203.748 35.104C203.719 34.2827 203.521 33.6593 203.154 33.234C202.802 32.794 202.311 32.574 201.68 32.574C200.947 32.574 200.375 32.794 199.964 33.234C199.554 33.6593 199.334 34.2827 199.304 35.104C199.29 35.3093 199.282 35.544 199.282 35.808C199.282 36.0573 199.29 36.2627 199.304 36.424C199.334 37.2747 199.532 37.92 199.898 38.36C200.28 38.7853 200.822 38.998 201.526 38.998ZM209.258 41C209.112 41 208.98 40.9487 208.862 40.846C208.76 40.7287 208.708 40.5967 208.708 40.45V38.8C208.708 38.4773 208.884 38.3013 209.236 38.272C209.662 38.228 209.992 38.0227 210.226 37.656C210.476 37.2893 210.652 36.732 210.754 35.984C210.857 35.236 210.908 34.29 210.908 33.146V30.11C210.908 29.9487 210.96 29.8167 211.062 29.714C211.165 29.6113 211.297 29.56 211.458 29.56H219.664C219.826 29.56 219.958 29.6113 220.06 29.714C220.163 29.8167 220.214 29.9487 220.214 30.11V40.45C220.214 40.6113 220.163 40.7433 220.06 40.846C219.958 40.9487 219.826 41 219.664 41H217.464C217.303 41 217.171 40.9487 217.068 40.846C216.966 40.7433 216.914 40.6113 216.914 40.45V32.156H214.054V33.498C214.054 34.8913 213.974 36.072 213.812 37.04C213.666 38.008 213.409 38.7853 213.042 39.372C212.676 39.944 212.184 40.362 211.568 40.626C210.952 40.8753 210.182 41 209.258 41ZM223.564 41C223.432 41 223.307 40.9487 223.19 40.846C223.087 40.7433 223.036 40.6187 223.036 40.472V30.11C223.036 29.9487 223.087 29.8167 223.19 29.714C223.307 29.6113 223.439 29.56 223.586 29.56H225.808C225.955 29.56 226.079 29.6113 226.182 29.714C226.285 29.8167 226.336 29.9487 226.336 30.11V38.448L225.456 37.942L231.198 29.912C231.271 29.8093 231.352 29.7287 231.44 29.67C231.543 29.5967 231.667 29.56 231.814 29.56H233.816C233.948 29.56 234.065 29.6113 234.168 29.714C234.271 29.8167 234.322 29.934 234.322 30.066V40.45C234.322 40.6113 234.271 40.7433 234.168 40.846C234.065 40.9487 233.941 41 233.794 41H231.572C231.425 41 231.301 40.9487 231.198 40.846C231.095 40.7433 231.044 40.6113 231.044 40.45V32.42L231.946 32.574L226.182 40.648C226.109 40.7507 226.021 40.8387 225.918 40.912C225.83 40.9707 225.713 41 225.566 41H223.564ZM237.465 41C237.318 41 237.186 40.9487 237.069 40.846C236.966 40.7433 236.915 40.6113 236.915 40.45V30.11C236.915 29.9487 236.966 29.8167 237.069 29.714C237.186 29.6113 237.318 29.56 237.465 29.56H239.621C239.782 29.56 239.914 29.6113 240.017 29.714C240.119 29.8167 240.171 29.9487 240.171 30.11V33.894H241.557L244.109 29.912C244.153 29.824 244.219 29.7433 244.307 29.67C244.409 29.5967 244.541 29.56 244.703 29.56H247.101C247.247 29.56 247.365 29.604 247.453 29.692C247.541 29.7653 247.585 29.8607 247.585 29.978C247.585 30.022 247.57 30.0733 247.541 30.132C247.526 30.1907 247.504 30.242 247.475 30.286L244.395 35.082L247.959 40.296C248.032 40.384 248.069 40.4793 248.069 40.582C248.069 40.6993 248.025 40.802 247.937 40.89C247.849 40.9633 247.731 41 247.585 41H244.923C244.776 41 244.651 40.9707 244.549 40.912C244.461 40.8387 244.38 40.7507 244.307 40.648L241.535 36.512H240.171V40.45C240.171 40.6113 240.119 40.7433 240.017 40.846C239.914 40.9487 239.782 41 239.621 41H237.465ZM253.258 41.22C252.481 41.22 251.784 41.0733 251.168 40.78C250.552 40.472 250.061 40.0613 249.694 39.548C249.327 39.0347 249.144 38.4627 249.144 37.832C249.144 36.7907 249.562 35.9693 250.398 35.368C251.249 34.7667 252.363 34.356 253.742 34.136L256.624 33.718V33.322C256.624 32.75 256.492 32.31 256.228 32.002C255.964 31.694 255.502 31.54 254.842 31.54C254.358 31.54 253.969 31.6353 253.676 31.826C253.397 32.0167 253.177 32.266 253.016 32.574C252.899 32.7647 252.723 32.86 252.488 32.86H250.398C250.237 32.86 250.112 32.816 250.024 32.728C249.936 32.6253 249.899 32.508 249.914 32.376C249.914 32.1267 250.009 31.8333 250.2 31.496C250.391 31.1587 250.684 30.8287 251.08 30.506C251.476 30.1687 251.982 29.89 252.598 29.67C253.229 29.45 253.984 29.34 254.864 29.34C255.788 29.34 256.58 29.45 257.24 29.67C257.9 29.89 258.428 30.198 258.824 30.594C259.235 30.99 259.528 31.452 259.704 31.98C259.895 32.4933 259.99 33.0507 259.99 33.652V40.45C259.99 40.6113 259.939 40.7433 259.836 40.846C259.733 40.9487 259.609 41 259.462 41H257.284C257.137 41 257.013 40.9487 256.91 40.846C256.807 40.7433 256.756 40.6113 256.756 40.45V39.636C256.565 39.9147 256.309 40.1787 255.986 40.428C255.663 40.6627 255.275 40.8533 254.82 41C254.38 41.1467 253.859 41.22 253.258 41.22ZM254.138 38.932C254.622 38.932 255.055 38.8293 255.436 38.624C255.817 38.4187 256.118 38.1033 256.338 37.678C256.558 37.2527 256.668 36.7173 256.668 36.072V35.698L254.622 36.028C253.845 36.16 253.273 36.358 252.906 36.622C252.539 36.886 252.356 37.2087 252.356 37.59C252.356 37.8687 252.437 38.1107 252.598 38.316C252.774 38.5067 252.994 38.6607 253.258 38.778C253.537 38.8807 253.83 38.932 254.138 38.932ZM263.182 41C263.035 41 262.903 40.9487 262.786 40.846C262.683 40.7433 262.632 40.6113 262.632 40.45V30.11C262.632 29.9487 262.683 29.8167 262.786 29.714C262.903 29.6113 263.035 29.56 263.182 29.56H265.404C265.55 29.56 265.675 29.6113 265.778 29.714C265.88 29.8167 265.932 29.9487 265.932 30.11V33.894H270.398V30.11C270.398 29.9487 270.449 29.8167 270.552 29.714C270.654 29.6113 270.779 29.56 270.926 29.56H273.148C273.294 29.56 273.419 29.6113 273.522 29.714C273.639 29.8167 273.698 29.9487 273.698 30.11V40.45C273.698 40.6113 273.639 40.7433 273.522 40.846C273.419 40.9487 273.294 41 273.148 41H270.926C270.779 41 270.654 40.9487 270.552 40.846C270.449 40.7433 270.398 40.6113 270.398 40.45V36.49H265.932V40.45C265.932 40.6113 265.88 40.7433 265.778 40.846C265.675 40.9487 265.55 41 265.404 41H263.182ZM281.636 41.22C280.551 41.22 279.598 41.022 278.776 40.626C277.97 40.23 277.332 39.658 276.862 38.91C276.393 38.1473 276.136 37.238 276.092 36.182C276.078 35.9473 276.07 35.654 276.07 35.302C276.07 34.9353 276.078 34.6347 276.092 34.4C276.136 33.3293 276.386 32.42 276.84 31.672C277.31 30.9093 277.955 30.33 278.776 29.934C279.598 29.538 280.551 29.34 281.636 29.34C282.604 29.34 283.433 29.4793 284.122 29.758C284.812 30.022 285.376 30.3667 285.816 30.792C286.256 31.2027 286.586 31.628 286.806 32.068C287.026 32.508 287.144 32.8967 287.158 33.234C287.173 33.3953 287.122 33.5273 287.004 33.63C286.887 33.7327 286.755 33.784 286.608 33.784H284.254C284.093 33.784 283.968 33.7473 283.88 33.674C283.807 33.6007 283.734 33.4833 283.66 33.322C283.47 32.8087 283.213 32.442 282.89 32.222C282.568 32.002 282.164 31.892 281.68 31.892C281.02 31.892 280.5 32.1047 280.118 32.53C279.752 32.9553 279.554 33.6153 279.524 34.51C279.495 35.082 279.495 35.6027 279.524 36.072C279.554 36.9813 279.752 37.6413 280.118 38.052C280.5 38.4627 281.02 38.668 281.68 38.668C282.194 38.668 282.604 38.558 282.912 38.338C283.22 38.118 283.47 37.7513 283.66 37.238C283.734 37.0767 283.807 36.9593 283.88 36.886C283.968 36.8127 284.093 36.776 284.254 36.776H286.608C286.755 36.776 286.887 36.8273 287.004 36.93C287.122 37.0327 287.173 37.1647 287.158 37.326C287.144 37.5753 287.07 37.8687 286.938 38.206C286.806 38.5433 286.601 38.888 286.322 39.24C286.058 39.592 285.714 39.922 285.288 40.23C284.863 40.5233 284.342 40.7653 283.726 40.956C283.125 41.132 282.428 41.22 281.636 41.22ZM289.822 41C289.676 41 289.544 40.9487 289.426 40.846C289.324 40.7433 289.272 40.6113 289.272 40.45V30.11C289.272 29.9487 289.324 29.8167 289.426 29.714C289.544 29.6113 289.676 29.56 289.822 29.56H291.978C292.14 29.56 292.272 29.6113 292.374 29.714C292.477 29.8167 292.528 29.9487 292.528 30.11V33.894H293.914L296.466 29.912C296.51 29.824 296.576 29.7433 296.664 29.67C296.767 29.5967 296.899 29.56 297.06 29.56H299.458C299.605 29.56 299.722 29.604 299.81 29.692C299.898 29.7653 299.942 29.8607 299.942 29.978C299.942 30.022 299.928 30.0733 299.898 30.132C299.884 30.1907 299.862 30.242 299.832 30.286L296.752 35.082L300.316 40.296C300.39 40.384 300.426 40.4793 300.426 40.582C300.426 40.6993 300.382 40.802 300.294 40.89C300.206 40.9633 300.089 41 299.942 41H297.28C297.134 41 297.009 40.9707 296.906 40.912C296.818 40.8387 296.738 40.7507 296.664 40.648L293.892 36.512H292.528V40.45C292.528 40.6113 292.477 40.7433 292.374 40.846C292.272 40.9487 292.14 41 291.978 41H289.822ZM302.755 41C302.623 41 302.499 40.9487 302.381 40.846C302.279 40.7433 302.227 40.6187 302.227 40.472V30.11C302.227 29.9487 302.279 29.8167 302.381 29.714C302.499 29.6113 302.631 29.56 302.777 29.56H304.999C305.146 29.56 305.271 29.6113 305.373 29.714C305.476 29.8167 305.527 29.9487 305.527 30.11V38.448L304.647 37.942L310.389 29.912C310.463 29.8093 310.543 29.7287 310.631 29.67C310.734 29.5967 310.859 29.56 311.005 29.56H313.007C313.139 29.56 313.257 29.6113 313.359 29.714C313.462 29.8167 313.513 29.934 313.513 30.066V40.45C313.513 40.6113 313.462 40.7433 313.359 40.846C313.257 40.9487 313.132 41 312.985 41H310.763C310.617 41 310.492 40.9487 310.389 40.846C310.287 40.7433 310.235 40.6113 310.235 40.45V32.42L311.137 32.574L305.373 40.648C305.3 40.7507 305.212 40.8387 305.109 40.912C305.021 40.9707 304.904 41 304.757 41H302.755ZM316.634 41C316.502 41 316.378 40.9487 316.26 40.846C316.158 40.7433 316.106 40.6187 316.106 40.472V30.11C316.106 29.9487 316.158 29.8167 316.26 29.714C316.378 29.6113 316.51 29.56 316.656 29.56H318.878C319.025 29.56 319.15 29.6113 319.252 29.714C319.355 29.8167 319.406 29.9487 319.406 30.11V38.448L318.526 37.942L324.268 29.912C324.342 29.8093 324.422 29.7287 324.51 29.67C324.613 29.5967 324.738 29.56 324.884 29.56H326.886C327.018 29.56 327.136 29.6113 327.238 29.714C327.341 29.8167 327.392 29.934 327.392 30.066V40.45C327.392 40.6113 327.341 40.7433 327.238 40.846C327.136 40.9487 327.011 41 326.864 41H324.642C324.496 41 324.371 40.9487 324.268 40.846C324.166 40.7433 324.114 40.6113 324.114 40.45V32.42L325.016 32.574L319.252 40.648C319.179 40.7507 319.091 40.8387 318.988 40.912C318.9 40.9707 318.783 41 318.636 41H316.634ZM321.892 28.064C320.998 28.064 320.272 27.9247 319.714 27.646C319.172 27.3673 318.776 27.0007 318.526 26.546C318.292 26.0767 318.174 25.5633 318.174 25.006C318.174 24.8887 318.211 24.7933 318.284 24.72C318.358 24.632 318.46 24.588 318.592 24.588H320.11C320.242 24.588 320.345 24.632 320.418 24.72C320.492 24.7933 320.528 24.8887 320.528 25.006C320.528 25.3287 320.616 25.6147 320.792 25.864C320.983 26.1133 321.35 26.238 321.892 26.238C322.45 26.238 322.816 26.1133 322.992 25.864C323.183 25.6147 323.278 25.3287 323.278 25.006C323.278 24.8887 323.315 24.7933 323.388 24.72C323.462 24.632 323.564 24.588 323.696 24.588H325.214C325.346 24.588 325.449 24.632 325.522 24.72C325.596 24.7933 325.632 24.8887 325.632 25.006C325.632 25.5633 325.508 26.0767 325.258 26.546C325.024 27.0007 324.628 27.3673 324.07 27.646C323.528 27.9247 322.802 28.064 321.892 28.064ZM346.699 44.08C346.537 44.08 346.405 44.0287 346.303 43.926C346.2 43.8233 346.149 43.6913 346.149 43.53V41H335.633C335.486 41 335.361 40.9487 335.259 40.846C335.156 40.7287 335.105 40.5967 335.105 40.45V26.15C335.105 25.9887 335.156 25.8567 335.259 25.754C335.361 25.6513 335.486 25.6 335.633 25.6H338.053C338.214 25.6 338.346 25.6513 338.449 25.754C338.551 25.8567 338.603 25.9887 338.603 26.15V37.854H344.565V26.15C344.565 25.9887 344.616 25.8567 344.719 25.754C344.821 25.6513 344.946 25.6 345.093 25.6H347.513C347.674 25.6 347.806 25.6513 347.909 25.754C348.011 25.8567 348.063 25.9887 348.063 26.15V37.854H349.119C349.28 37.854 349.412 37.9127 349.515 38.03C349.617 38.1327 349.669 38.2573 349.669 38.404V43.53C349.669 43.6913 349.617 43.8233 349.515 43.926C349.412 44.0287 349.28 44.08 349.119 44.08H346.699ZM356.853 41.22C355.167 41.22 353.825 40.7507 352.827 39.812C351.845 38.8733 351.324 37.5093 351.265 35.72C351.265 35.6027 351.265 35.4487 351.265 35.258C351.265 35.0527 351.265 34.8987 351.265 34.796C351.324 33.652 351.581 32.6767 352.035 31.87C352.49 31.0487 353.128 30.4253 353.949 30C354.771 29.56 355.731 29.34 356.831 29.34C358.078 29.34 359.112 29.5967 359.933 30.11C360.755 30.6087 361.371 31.298 361.781 32.178C362.207 33.0433 362.419 34.0407 362.419 35.17V35.676C362.419 35.8227 362.368 35.9547 362.265 36.072C362.163 36.1747 362.031 36.226 361.869 36.226H354.697C354.697 36.226 354.697 36.248 354.697 36.292C354.697 36.3213 354.697 36.3507 354.697 36.38C354.712 36.8493 354.8 37.282 354.961 37.678C355.123 38.0593 355.357 38.3673 355.665 38.602C355.988 38.8367 356.377 38.954 356.831 38.954C357.183 38.954 357.477 38.9027 357.711 38.8C357.946 38.6827 358.137 38.558 358.283 38.426C358.445 38.2793 358.562 38.1547 358.635 38.052C358.767 37.8907 358.87 37.7953 358.943 37.766C359.031 37.722 359.156 37.7 359.317 37.7H361.649C361.781 37.7 361.891 37.744 361.979 37.832C362.082 37.92 362.126 38.03 362.111 38.162C362.097 38.4113 361.972 38.712 361.737 39.064C361.517 39.4013 361.187 39.7387 360.747 40.076C360.307 40.3987 359.757 40.67 359.097 40.89C358.452 41.11 357.704 41.22 356.853 41.22ZM354.697 34.202H358.987V34.136C358.987 33.6227 358.899 33.1753 358.723 32.794C358.562 32.398 358.32 32.09 357.997 31.87C357.675 31.65 357.286 31.54 356.831 31.54C356.377 31.54 355.988 31.65 355.665 31.87C355.357 32.09 355.115 32.398 354.939 32.794C354.778 33.1753 354.697 33.6227 354.697 34.136V34.202ZM365.168 41C365.021 41 364.889 40.9487 364.772 40.846C364.669 40.7433 364.618 40.6113 364.618 40.45V30.11C364.618 29.9487 364.669 29.8167 364.772 29.714C364.889 29.6113 365.021 29.56 365.168 29.56H367.39C367.537 29.56 367.661 29.6113 367.764 29.714C367.867 29.8167 367.918 29.9487 367.918 30.11V33.894H372.384V30.11C372.384 29.9487 372.435 29.8167 372.538 29.714C372.641 29.6113 372.765 29.56 372.912 29.56H375.134C375.281 29.56 375.405 29.6113 375.508 29.714C375.625 29.8167 375.684 29.9487 375.684 30.11V40.45C375.684 40.6113 375.625 40.7433 375.508 40.846C375.405 40.9487 375.281 41 375.134 41H372.912C372.765 41 372.641 40.9487 372.538 40.846C372.435 40.7433 372.384 40.6113 372.384 40.45V36.49H367.918V40.45C367.918 40.6113 367.867 40.7433 367.764 40.846C367.661 40.9487 367.537 41 367.39 41H365.168ZM381.973 41C381.826 41 381.701 40.9487 381.599 40.846C381.496 40.7433 381.445 40.6113 381.445 40.45V32.156H377.991C377.829 32.156 377.697 32.1047 377.595 32.002C377.492 31.8993 377.441 31.7747 377.441 31.628V30.11C377.441 29.9487 377.492 29.8167 377.595 29.714C377.697 29.6113 377.829 29.56 377.991 29.56H388.155C388.301 29.56 388.426 29.6113 388.529 29.714C388.631 29.8167 388.683 29.9487 388.683 30.11V31.628C388.683 31.7747 388.631 31.8993 388.529 32.002C388.426 32.1047 388.301 32.156 388.155 32.156H384.679V40.45C384.679 40.6113 384.627 40.7433 384.525 40.846C384.422 40.9487 384.297 41 384.151 41H381.973ZM390.928 45.18C390.767 45.18 390.635 45.1287 390.532 45.026C390.43 44.9233 390.378 44.7913 390.378 44.63V30.11C390.378 29.9487 390.43 29.8167 390.532 29.714C390.635 29.6113 390.767 29.56 390.928 29.56H393.018C393.18 29.56 393.312 29.6113 393.414 29.714C393.517 29.8167 393.568 29.9487 393.568 30.11V30.946C393.92 30.4767 394.375 30.0953 394.932 29.802C395.504 29.494 396.208 29.34 397.044 29.34C397.792 29.34 398.445 29.4647 399.002 29.714C399.574 29.9487 400.051 30.2933 400.432 30.748C400.828 31.188 401.136 31.7233 401.356 32.354C401.576 32.9847 401.701 33.696 401.73 34.488C401.745 34.7667 401.752 35.0307 401.752 35.28C401.752 35.5293 401.745 35.8007 401.73 36.094C401.701 36.842 401.576 37.5313 401.356 38.162C401.151 38.7927 400.85 39.3353 400.454 39.79C400.058 40.2447 399.574 40.5967 399.002 40.846C398.445 41.0953 397.792 41.22 397.044 41.22C396.282 41.22 395.629 41.088 395.086 40.824C394.544 40.5453 394.096 40.1713 393.744 39.702V44.63C393.744 44.7913 393.693 44.9233 393.59 45.026C393.488 45.1287 393.356 45.18 393.194 45.18H390.928ZM396.032 38.58C396.59 38.58 397.03 38.4627 397.352 38.228C397.675 37.9787 397.902 37.656 398.034 37.26C398.181 36.864 398.269 36.4313 398.298 35.962C398.328 35.5073 398.328 35.0527 398.298 34.598C398.269 34.1287 398.181 33.696 398.034 33.3C397.902 32.904 397.675 32.5887 397.352 32.354C397.03 32.1047 396.59 31.98 396.032 31.98C395.49 31.98 395.05 32.1047 394.712 32.354C394.39 32.6033 394.148 32.9187 393.986 33.3C393.84 33.6813 393.759 34.092 393.744 34.532C393.73 34.796 393.722 35.0673 393.722 35.346C393.722 35.6247 393.73 35.9033 393.744 36.182C393.759 36.5927 393.847 36.9813 394.008 37.348C394.17 37.7 394.419 37.9933 394.756 38.228C395.094 38.4627 395.519 38.58 396.032 38.58Z" fill="white"/>
<path d="M129.14 81C128.937 81 128.747 80.924 128.57 80.772C128.418 80.5947 128.342 80.4047 128.342 80.202C128.342 80.0753 128.355 79.9613 128.38 79.86L137.31 55.464C137.386 55.1853 137.538 54.9447 137.766 54.742C138.019 54.514 138.361 54.4 138.792 54.4H144.416C144.847 54.4 145.176 54.514 145.404 54.742C145.657 54.9447 145.822 55.1853 145.898 55.464L154.79 79.86C154.841 79.9613 154.866 80.0753 154.866 80.202C154.866 80.4047 154.777 80.5947 154.6 80.772C154.448 80.924 154.258 81 154.03 81H149.356C148.976 81 148.685 80.9113 148.482 80.734C148.305 80.5313 148.191 80.354 148.14 80.202L146.658 76.326H136.512L135.068 80.202C135.017 80.354 134.903 80.5313 134.726 80.734C134.549 80.9113 134.245 81 133.814 81H129.14ZM138.07 70.854H145.138L141.604 60.822L138.07 70.854ZM166.069 81.38C164.347 81.38 162.903 81.19 161.737 80.81C160.572 80.4047 159.635 79.898 158.925 79.29C158.241 78.6567 157.735 77.998 157.405 77.314C157.101 76.6047 156.911 75.946 156.835 75.338C156.785 75.1353 156.835 74.9707 156.987 74.844C157.165 74.692 157.342 74.616 157.519 74.616H161.889C162.193 74.616 162.409 74.6667 162.535 74.768C162.662 74.8693 162.776 75.0087 162.877 75.186C163.181 75.794 163.587 76.2373 164.093 76.516C164.6 76.7947 165.259 76.934 166.069 76.934C167.108 76.934 167.919 76.6427 168.501 76.06C169.084 75.452 169.388 74.5147 169.413 73.248V73.02H163.865C163.637 73.02 163.447 72.944 163.295 72.792C163.143 72.6147 163.067 72.412 163.067 72.184V70.018C163.067 69.79 163.143 69.6 163.295 69.448C163.447 69.2707 163.637 69.182 163.865 69.182H169.413V68.992C169.388 67.8013 169.084 66.902 168.501 66.294C167.919 65.6607 167.108 65.344 166.069 65.344C165.284 65.344 164.625 65.4833 164.093 65.762C163.587 66.0153 163.169 66.4587 162.839 67.092C162.713 67.2693 162.586 67.4213 162.459 67.548C162.358 67.6493 162.155 67.7 161.851 67.7H157.633C157.431 67.7 157.253 67.6367 157.101 67.51C156.949 67.358 156.886 67.1807 156.911 66.978C156.987 66.37 157.19 65.7113 157.519 65.002C157.849 64.2927 158.355 63.6213 159.039 62.988C159.749 62.3547 160.673 61.848 161.813 61.468C162.953 61.0627 164.372 60.86 166.069 60.86C169.135 60.86 171.541 61.6073 173.289 63.102C175.037 64.5713 175.975 66.6867 176.101 69.448C176.152 69.9293 176.177 70.4867 176.177 71.12C176.177 71.728 176.152 72.2853 176.101 72.792C175.975 75.5533 175.063 77.6813 173.365 79.176C171.693 80.6453 169.261 81.38 166.069 81.38ZM181.03 88.22C180.751 88.22 180.523 88.1187 180.346 87.916C180.169 87.7387 180.08 87.5233 180.08 87.27V62.19C180.08 61.9113 180.169 61.6833 180.346 61.506C180.523 61.3287 180.751 61.24 181.03 61.24H185.324C185.577 61.24 185.793 61.3287 185.97 61.506C186.173 61.6833 186.274 61.9113 186.274 62.19V63.558C186.882 62.798 187.667 62.1647 188.63 61.658C189.593 61.126 190.771 60.86 192.164 60.86C193.431 60.86 194.545 61.0627 195.508 61.468C196.471 61.848 197.294 62.418 197.978 63.178C198.687 63.938 199.232 64.8627 199.612 65.952C199.992 67.0413 200.207 68.2953 200.258 69.714C200.283 70.2207 200.296 70.6893 200.296 71.12C200.296 71.5507 200.283 72.0193 200.258 72.526C200.207 73.894 199.992 75.1227 199.612 76.212C199.232 77.3013 198.7 78.226 198.016 78.986C197.332 79.746 196.496 80.3413 195.508 80.772C194.545 81.1773 193.431 81.38 192.164 81.38C190.923 81.38 189.833 81.1647 188.896 80.734C187.984 80.278 187.224 79.6447 186.616 78.834V87.27C186.616 87.5233 186.527 87.7387 186.35 87.916C186.173 88.1187 185.945 88.22 185.666 88.22H181.03ZM190.112 76.288C190.973 76.288 191.645 76.1107 192.126 75.756C192.607 75.4013 192.949 74.92 193.152 74.312C193.38 73.704 193.519 73.0327 193.57 72.298C193.621 71.5127 193.621 70.7273 193.57 69.942C193.519 69.2073 193.38 68.536 193.152 67.928C192.949 67.32 192.607 66.8387 192.126 66.484C191.645 66.1293 190.973 65.952 190.112 65.952C189.301 65.952 188.643 66.142 188.136 66.522C187.629 66.8767 187.262 67.3453 187.034 67.928C186.806 68.5107 186.667 69.144 186.616 69.828C186.591 70.3093 186.578 70.778 186.578 71.234C186.578 71.69 186.591 72.1713 186.616 72.678C186.641 73.3113 186.781 73.9067 187.034 74.464C187.287 74.996 187.667 75.4393 188.174 75.794C188.681 76.1233 189.327 76.288 190.112 76.288ZM213.401 81.38C211.273 81.38 209.474 81.038 208.005 80.354C206.561 79.67 205.446 78.6947 204.661 77.428C203.901 76.136 203.47 74.6033 203.369 72.83C203.343 72.3233 203.331 71.7533 203.331 71.12C203.331 70.4613 203.343 69.8913 203.369 69.41C203.47 67.6113 203.926 66.0787 204.737 64.812C205.547 63.5453 206.675 62.57 208.119 61.886C209.588 61.202 211.349 60.86 213.401 60.86C215.478 60.86 217.239 61.202 218.683 61.886C220.152 62.57 221.292 63.5453 222.103 64.812C222.913 66.0787 223.369 67.6113 223.471 69.41C223.496 69.8913 223.509 70.4613 223.509 71.12C223.509 71.7533 223.496 72.3233 223.471 72.83C223.369 74.6033 222.926 76.136 222.141 77.428C221.381 78.6947 220.266 79.67 218.797 80.354C217.353 81.038 215.554 81.38 213.401 81.38ZM213.401 76.744C214.541 76.744 215.364 76.402 215.871 75.718C216.403 75.034 216.707 74.008 216.783 72.64C216.808 72.26 216.821 71.7533 216.821 71.12C216.821 70.4867 216.808 69.98 216.783 69.6C216.707 68.2573 216.403 67.244 215.871 66.56C215.364 65.8507 214.541 65.496 213.401 65.496C212.311 65.496 211.488 65.8507 210.931 66.56C210.399 67.244 210.107 68.2573 210.057 69.6C210.031 69.98 210.019 70.4867 210.019 71.12C210.019 71.7533 210.031 72.26 210.057 72.64C210.107 74.008 210.399 75.034 210.931 75.718C211.488 76.402 212.311 76.744 213.401 76.744ZM228.233 81C227.954 81 227.726 80.9113 227.549 80.734C227.372 80.5313 227.283 80.3033 227.283 80.05V62.19C227.283 61.9113 227.372 61.6833 227.549 61.506C227.726 61.3287 227.954 61.24 228.233 61.24H240.925C241.204 61.24 241.432 61.3287 241.609 61.506C241.786 61.6833 241.875 61.9113 241.875 62.19V65.268C241.875 65.5467 241.786 65.7747 241.609 65.952C241.432 66.1293 241.204 66.218 240.925 66.218H233.667V80.05C233.667 80.3033 233.578 80.5313 233.401 80.734C233.224 80.9113 232.996 81 232.717 81H228.233ZM253.844 81.38C250.855 81.38 248.474 80.5693 246.7 78.948C244.927 77.3267 244.002 74.92 243.926 71.728C243.926 71.5507 243.926 71.3227 243.926 71.044C243.926 70.7653 243.926 70.55 243.926 70.398C244.002 68.3967 244.446 66.6867 245.256 65.268C246.092 63.824 247.232 62.7347 248.676 62C250.146 61.24 251.856 60.86 253.806 60.86C256.036 60.86 257.872 61.3033 259.316 62.19C260.786 63.0767 261.888 64.28 262.622 65.8C263.357 67.32 263.724 69.0553 263.724 71.006V71.918C263.724 72.1967 263.636 72.4247 263.458 72.602C263.281 72.7793 263.053 72.868 262.774 72.868H250.614C250.614 72.8933 250.614 72.9313 250.614 72.982C250.614 73.0327 250.614 73.0833 250.614 73.134C250.64 73.8687 250.766 74.54 250.994 75.148C251.248 75.756 251.602 76.2373 252.058 76.592C252.54 76.9467 253.122 77.124 253.806 77.124C254.313 77.124 254.731 77.048 255.06 76.896C255.415 76.7187 255.706 76.5287 255.934 76.326C256.162 76.098 256.34 75.908 256.466 75.756C256.694 75.4773 256.872 75.3127 256.998 75.262C257.15 75.186 257.378 75.148 257.682 75.148H262.394C262.648 75.148 262.85 75.224 263.002 75.376C263.18 75.528 263.256 75.7307 263.23 75.984C263.205 76.4147 262.99 76.934 262.584 77.542C262.179 78.15 261.584 78.758 260.798 79.366C260.038 79.9487 259.076 80.43 257.91 80.81C256.745 81.19 255.39 81.38 253.844 81.38ZM250.614 69.106H257.036V69.03C257.036 68.194 256.91 67.4847 256.656 66.902C256.428 66.294 256.061 65.8253 255.554 65.496C255.073 65.1667 254.49 65.002 253.806 65.002C253.148 65.002 252.578 65.1667 252.096 65.496C251.615 65.8253 251.248 66.294 250.994 66.902C250.741 67.4847 250.614 68.194 250.614 69.03V69.106ZM276.635 81.38C274.507 81.38 272.708 81.038 271.239 80.354C269.795 79.67 268.68 78.6947 267.895 77.428C267.135 76.136 266.704 74.6033 266.603 72.83C266.578 72.3233 266.565 71.7533 266.565 71.12C266.565 70.4613 266.578 69.8913 266.603 69.41C266.704 67.6113 267.16 66.0787 267.971 64.812C268.782 63.5453 269.909 62.57 271.353 61.886C272.822 61.202 274.583 60.86 276.635 60.86C278.712 60.86 280.473 61.202 281.917 61.886C283.386 62.57 284.526 63.5453 285.337 64.812C286.148 66.0787 286.604 67.6113 286.705 69.41C286.73 69.8913 286.743 70.4613 286.743 71.12C286.743 71.7533 286.73 72.3233 286.705 72.83C286.604 74.6033 286.16 76.136 285.375 77.428C284.615 78.6947 283.5 79.67 282.031 80.354C280.587 81.038 278.788 81.38 276.635 81.38ZM276.635 76.744C277.775 76.744 278.598 76.402 279.105 75.718C279.637 75.034 279.941 74.008 280.017 72.64C280.042 72.26 280.055 71.7533 280.055 71.12C280.055 70.4867 280.042 69.98 280.017 69.6C279.941 68.2573 279.637 67.244 279.105 66.56C278.598 65.8507 277.775 65.496 276.635 65.496C275.546 65.496 274.722 65.8507 274.165 66.56C273.633 67.244 273.342 68.2573 273.291 69.6C273.266 69.98 273.253 70.4867 273.253 71.12C273.253 71.7533 273.266 72.26 273.291 72.64C273.342 74.008 273.633 75.034 274.165 75.718C274.722 76.402 275.546 76.744 276.635 76.744ZM290.099 85.18C289.846 85.18 289.618 85.0787 289.415 84.876C289.238 84.6987 289.149 84.4833 289.149 84.23V76.972C289.149 76.6933 289.238 76.4653 289.415 76.288C289.618 76.1107 289.846 76.022 290.099 76.022H290.479C291.138 75.9967 291.645 75.6673 291.999 75.034C292.379 74.3753 292.633 73.4253 292.759 72.184C292.911 70.9173 292.987 69.372 292.987 67.548V62.19C292.987 61.9113 293.076 61.6833 293.253 61.506C293.456 61.3287 293.684 61.24 293.937 61.24H308.871C309.15 61.24 309.378 61.3287 309.555 61.506C309.758 61.6833 309.859 61.9113 309.859 62.19V75.984H311.455C311.734 75.984 311.962 76.0853 312.139 76.288C312.317 76.4653 312.405 76.6807 312.405 76.934V84.23C312.405 84.4833 312.317 84.6987 312.139 84.876C311.962 85.0787 311.734 85.18 311.455 85.18H306.971C306.693 85.18 306.465 85.0787 306.287 84.876C306.11 84.6987 306.021 84.4833 306.021 84.23V81H295.571V84.23C295.571 84.4833 295.47 84.6987 295.267 84.876C295.09 85.0787 294.875 85.18 294.621 85.18H290.099ZM297.737 76.022L303.437 75.984V66.218H299.105V68.232C299.105 70.132 298.979 71.7153 298.725 72.982C298.497 74.2487 298.168 75.262 297.737 76.022ZM324.575 81.38C321.586 81.38 319.204 80.5693 317.431 78.948C315.658 77.3267 314.733 74.92 314.657 71.728C314.657 71.5507 314.657 71.3227 314.657 71.044C314.657 70.7653 314.657 70.55 314.657 70.398C314.733 68.3967 315.176 66.6867 315.987 65.268C316.823 63.824 317.963 62.7347 319.407 62C320.876 61.24 322.586 60.86 324.537 60.86C326.766 60.86 328.603 61.3033 330.047 62.19C331.516 63.0767 332.618 64.28 333.353 65.8C334.088 67.32 334.455 69.0553 334.455 71.006V71.918C334.455 72.1967 334.366 72.4247 334.189 72.602C334.012 72.7793 333.784 72.868 333.505 72.868H321.345C321.345 72.8933 321.345 72.9313 321.345 72.982C321.345 73.0327 321.345 73.0833 321.345 73.134C321.37 73.8687 321.497 74.54 321.725 75.148C321.978 75.756 322.333 76.2373 322.789 76.592C323.27 76.9467 323.853 77.124 324.537 77.124C325.044 77.124 325.462 77.048 325.791 76.896C326.146 76.7187 326.437 76.5287 326.665 76.326C326.893 76.098 327.07 75.908 327.197 75.756C327.425 75.4773 327.602 75.3127 327.729 75.262C327.881 75.186 328.109 75.148 328.413 75.148H333.125C333.378 75.148 333.581 75.224 333.733 75.376C333.91 75.528 333.986 75.7307 333.961 75.984C333.936 76.4147 333.72 76.934 333.315 77.542C332.91 78.15 332.314 78.758 331.529 79.366C330.769 79.9487 329.806 80.43 328.641 80.81C327.476 81.19 326.12 81.38 324.575 81.38ZM321.345 69.106H327.767V69.03C327.767 68.194 327.64 67.4847 327.387 66.902C327.159 66.294 326.792 65.8253 326.285 65.496C325.804 65.1667 325.221 65.002 324.537 65.002C323.878 65.002 323.308 65.1667 322.827 65.496C322.346 65.8253 321.978 66.294 321.725 66.902C321.472 67.4847 321.345 68.194 321.345 69.03V69.106ZM346.301 81.38C344.528 81.38 343.059 81.19 341.893 80.81C340.753 80.4047 339.841 79.9107 339.157 79.328C338.473 78.72 337.979 78.0867 337.675 77.428C337.397 76.744 337.219 76.136 337.143 75.604C337.118 75.4013 337.181 75.2367 337.333 75.11C337.485 74.9833 337.65 74.92 337.827 74.92H342.235C342.514 74.92 342.717 74.9707 342.843 75.072C342.995 75.1733 343.122 75.3127 343.223 75.49C343.451 75.9967 343.819 76.364 344.325 76.592C344.857 76.82 345.541 76.934 346.377 76.934C346.96 76.934 347.467 76.858 347.897 76.706C348.353 76.554 348.695 76.326 348.923 76.022C349.151 75.718 349.265 75.338 349.265 74.882C349.265 74.2487 349.075 73.7673 348.695 73.438C348.315 73.0833 347.657 72.906 346.719 72.906H344.591C344.363 72.906 344.173 72.83 344.021 72.678C343.869 72.5007 343.793 72.298 343.793 72.07V69.904C343.793 69.676 343.869 69.486 344.021 69.334C344.173 69.1567 344.363 69.068 344.591 69.068H346.643C347.429 69.068 347.999 68.9287 348.353 68.65C348.708 68.346 348.885 67.9153 348.885 67.358C348.885 67.0033 348.797 66.674 348.619 66.37C348.442 66.066 348.163 65.8253 347.783 65.648C347.429 65.4453 346.909 65.344 346.225 65.344C345.288 65.344 344.617 65.4833 344.211 65.762C343.831 66.0153 343.527 66.4207 343.299 66.978C343.173 67.1553 343.046 67.2947 342.919 67.396C342.793 67.4973 342.577 67.548 342.273 67.548H338.017C337.815 67.548 337.65 67.4847 337.523 67.358C337.397 67.2313 337.333 67.0667 337.333 66.864C337.409 66.2053 337.599 65.534 337.903 64.85C338.233 64.1407 338.739 63.482 339.423 62.874C340.107 62.266 341.007 61.7847 342.121 61.43C343.261 61.05 344.655 60.86 346.301 60.86C348.455 60.86 350.165 61.126 351.431 61.658C352.723 62.1647 353.648 62.8487 354.205 63.71C354.763 64.546 355.041 65.4707 355.041 66.484C355.041 67.3453 354.864 68.1307 354.509 68.84C354.155 69.5493 353.521 70.132 352.609 70.588C353.749 71.0187 354.535 71.6773 354.965 72.564C355.396 73.4507 355.611 74.4007 355.611 75.414C355.611 76.63 355.231 77.6813 354.471 78.568C353.737 79.4547 352.673 80.1513 351.279 80.658C349.886 81.1393 348.227 81.38 346.301 81.38ZM360.119 81C359.866 81 359.65 80.9113 359.473 80.734C359.296 80.5313 359.207 80.316 359.207 80.088V62.19C359.207 61.9113 359.296 61.6833 359.473 61.506C359.65 61.3287 359.878 61.24 360.157 61.24H364.641C364.92 61.24 365.148 61.3287 365.325 61.506C365.502 61.6833 365.591 61.9113 365.591 62.19V76.06L363.881 75.224L373.267 61.848C373.394 61.6707 373.546 61.5313 373.723 61.43C373.9 61.3033 374.103 61.24 374.331 61.24H378.397C378.65 61.24 378.866 61.3287 379.043 61.506C379.22 61.6833 379.309 61.8987 379.309 62.152V80.05C379.309 80.3033 379.22 80.5313 379.043 80.734C378.866 80.9113 378.638 81 378.359 81H373.875C373.596 81 373.368 80.9113 373.191 80.734C373.014 80.5313 372.925 80.3033 372.925 80.05V66.598L374.673 66.94L365.211 80.392C365.11 80.5693 364.97 80.7213 364.793 80.848C364.616 80.9493 364.4 81 364.147 81H360.119ZM384.351 81C384.098 81 383.883 80.9113 383.705 80.734C383.528 80.5313 383.439 80.316 383.439 80.088V62.19C383.439 61.9113 383.528 61.6833 383.705 61.506C383.883 61.3287 384.111 61.24 384.389 61.24H388.873C389.152 61.24 389.38 61.3287 389.557 61.506C389.735 61.6833 389.823 61.9113 389.823 62.19V76.06L388.113 75.224L397.499 61.848C397.626 61.6707 397.778 61.5313 397.955 61.43C398.133 61.3033 398.335 61.24 398.563 61.24H402.629C402.883 61.24 403.098 61.3287 403.275 61.506C403.453 61.6833 403.541 61.8987 403.541 62.152V80.05C403.541 80.3033 403.453 80.5313 403.275 80.734C403.098 80.9113 402.87 81 402.591 81H398.107C397.829 81 397.601 80.9113 397.423 80.734C397.246 80.5313 397.157 80.3033 397.157 80.05V66.598L398.905 66.94L389.443 80.392C389.342 80.5693 389.203 80.7213 389.025 80.848C388.848 80.9493 388.633 81 388.379 81H384.351Z" fill="white"/>
<path d="M90.5254 51.9068C90.5254 76.9047 70.2606 97.1695 45.2627 97.1695C38.2653 97.1695 31.6387 95.5816 25.7237 92.7466L55.9489 55.2995L69.7627 38.6187L45.0765 86.3724C45.1385 86.3727 45.2006 86.3729 45.2627 86.3729C64.2978 86.3729 79.7288 70.9419 79.7288 51.9068C79.7288 45.1125 77.7629 38.7775 74.3688 33.4393L81.5915 24.9034C87.2039 32.4416 90.5254 41.7863 90.5254 51.9068Z" fill="white"/>
<path d="M16.5967 71.0489C16.6075 71.0651 16.6184 71.0813 16.6293 71.0975L27.5501 61.953L77.2373 20.3085L18.9904 88.7687C14.8818 85.8352 11.2843 82.2318 8.35736 78.1181L8.30508 78.0678L8.31544 78.0591C8.29558 78.0311 8.27575 78.0031 8.25596 77.975L16.5967 71.0489Z" fill="white"/>
<path d="M57.4823 27.9462L10.7988 52.3028C10.7974 52.171 10.7966 52.039 10.7966 51.9068C10.7966 32.8717 26.2276 17.4407 45.2627 17.4407C51.9553 17.4407 58.2024 19.3482 63.4898 22.6493L72.4771 15.736C64.9026 10.028 55.4778 6.64407 45.2627 6.64407C20.2648 6.64407 0 26.9089 0 51.9068C0 58.9931 1.62843 65.699 4.5315 71.6708L57.4823 27.9462Z" fill="white"/>
<path d="M98 0L73.9153 10.3814C73.9153 10.3814 77.4363 12.0972 80.223 14.2251L89.6949 8.30508L83.62 17.62C85.8862 20.4695 88.0339 24.0847 88.0339 24.0847L98 0Z" fill="white"/>
</svg>
